# AST/ASF file generated using VICON BodyLanguage
# -----------------------------------------------
:version 1.10
:name VICON
:units
  mass 1.0
  length 0.45
  angle deg
:documentation
   .ast/.asf automatically generated from VICON data using
   VICON BodyBuilder and BodyLanguage model FoxedUp or BRILLIANT.MOD
:root
   order TX TY TZ RX RY RZ
   axis XYZ
   position 0 0 0  
   orientation 0 0 0 
:bonedata
  begin
     id 1 
     name lhipjoint
     direction 0.710188 -0.616876 0.339259 
     length 2.5669 
     axis 0 0 0  XYZ
  end
  begin
     id 2 
     name lfemur
     direction 0.34202 -0.939693 0  
     length 7.12796  
     axis 0 0 20  XYZ
    dof rx ry rz
    limits (-160.0 20.0)
           (-70.0 70.0)
           (-60.0 70.0)
  end
  begin
     id 3 
     name ltibia
     direction 0.34202 -0.939693 0   
     length 7.58108   
     axis 0 0 20   XYZ
    dof rx
    limits (-10.0 170.0)
  end
  begin
     id 4 
     name lfoot
     direction 0.0669471 -0.183936 0.980656   
     length 2.17365   
     axis -90 7.62852e-016 20   XYZ
    dof rx rz
    limits (-45.0 90.0)
           (-70.0 20.0)
  end
  begin
     id 5 
     name ltoes
     direction 1.53508e-011 -4.21705e-011 1   
     length 1.09427   
     axis -90 7.62852e-016 20   XYZ
    dof rx
    limits (-90.0 20.0)
  end
  begin
     id 6 
     name rhipjoint
     direction -0.700191 -0.625589 0.34405   
     length 2.53115  
     axis 0 0 0  XYZ 
  end
  begin
     id 7 
     name rfemur
     direction -0.34202 -0.939693 0   
     length 7.33006   
     axis 0 0 -20   XYZ
    dof rx ry rz
    limits (-160.0 20.0)
           (-70.0 70.0)
           (-70.0 60.0)
  end
  begin
     id 8 
     name rtibia
     direction -0.34202 -0.939693 0   
     length 7.64926   
     axis 0 0 -20   XYZ
    dof rx
    limits (-10.0 170.0)
 end
 begin
     id 9 
     name rfoot
     direction -0.0688927 -0.189281 0.979503   
     length 2.20493  
     axis -90 -7.62852e-016 -20   XYZ
    dof rx rz
    limits (-45.0 90.0)
           (-20.0 70.0)
  end
  begin
     id 10 
     name rtoes
     direction -1.53567e-011 -4.21933e-011 1   
     length 1.10919   
     axis -90 -7.62852e-016 -20   XYZ
    dof rx
    limits (-90.0 20.0)
  end
  begin
     id 11 
     name lowerback
     direction -0.0167868 0.989873 -0.140959   
     length 2.14596   
     axis 0 0 0   XYZ
    dof rx ry rz
    limits (-20.0 45.0)
           (-30.0 30.0)
           (-30.0 30.0)
  end
  begin
     id 12 
     name upperback
     direction 0.0129109 0.998033 0.0613525   
     length 2.10457   
     axis 0 0 0   XYZ
    dof rx ry rz
    limits (-20.0 45.0)
           (-30.0 30.0)
           (-30.0 30.0)
  end
  begin
     id 13 
     name thorax
     direction 0.0177047 0.991119 0.131797   
     length 2.17652   
     axis 0 0 0   XYZ
    dof rx ry rz
    limits (-20.0 45.0)
           (-30.0 30.0)
           (-30.0 30.0)
  end
  begin
     id 14 
     name lowerneck
     direction -0.0336893 0.997548 0.0613464   
     length 1.8912   
     axis 0 0 0   XYZ
    dof rx ry rz
    limits (-20.0 45.0)
           (-30.0 30.0)
           (-30.0 30.0)
  end
  begin
     id 15 
     name upperneck
     direction 0.0435909 0.997179 -0.0611028   
     length 1.8829   
     axis 0 0 0   XYZ
    dof rx ry rz
    limits (-20.0 45.0)
           (-30.0 30.0)
           (-30.0 30.0)
  end
  begin
     id 16
     name head
     direction 0.0175076 0.999444 -0.0283782  
     length 1.93197  
     axis 0 0 0   XYZ
    dof rx ry rz
    limits (-20.0 45.0)
           (-30.0 30.0)
           (-30.0 30.0)
  end
  begin
     id 17 
     name lclavicle
     direction 0.919164 0.389875 0.0559876  
     length 3.60004  
     axis 0 0 0   XYZ
    dof ry rz
    limits (-20.0 10.0)
           (0.0 20.0)
  end
  begin
     id 18 
     name lhumerus
     direction 1 -4.48958e-011 6.89191e-027   
     length 5.43301   
     axis 180 -30 -90   XYZ
    dof rx ry rz
    limits (-60.0 90.0)
           (-90.0 90.0)
           (-90.0 90.0)
  end
  begin
     id 19
     name lradius
     direction 1 -4.4897e-011 3.24727e-027   
     length 3.15936   
     axis 180 -30 -90   XYZ
    dof rx
    limits (-10.0 170.0)
  end
  begin
     id 20
     name lwrist
     direction 1 -4.4897e-011 9.00228e-027   
     length 1.57968   
     axis -6.29373e-015 90 90   XYZ
    dof ry
    limits (-180.0 0.0)
 end
  begin
     id 21 
     name lhand
     direction 1 -4.48968e-011 1.80042e-026   
     length 0.712827   
     axis -1.14882e-014 90 90   XYZ
    dof rx rz
    limits (-90.0 90.0)
           (-45.0 45.0)
  end
  begin
     id 22 
     name lfingers
     direction 1 -4.49019e-011 3.60267e-026   
     length 0.574699   
     axis -2.29769e-014 90 90   XYZ
    dof rx
    limits (0.0 90.0)
  end
  begin
     id 23
     name lthumb
     direction 0.707107 -6.3498e-011 0.707107   
     length 0.825157   
     axis -90 45 5.37419e-014   XYZ
    dof rx rz
    limits (-45.0 45.0)
           (-45.0 45.0)
  end
  begin
     id 24 
     name rclavicle
     direction -0.890334 0.455305 -0.00132111   
     length 3.51494  
     axis 0 0 0   XYZ 
    dof ry rz
    limits (-10.0 20.0)
           (-20.0 0.0)
  end
  begin
     id 25 
     name rhumerus
     direction -1 -4.48967e-011 5.07175e-028  
     length 5.34194   
     axis 180 30 90   XYZ
    dof rx ry rz
    limits (-90.0 60.0)
           (-90.0 90.0)
           (-90.0 90.0)
  end
  begin
     id 26 
     name rradius
     direction -1 -4.48955e-011 3.30467e-027   
     length 3.19351   
     axis 180 30 90   XYZ
    dof rx
    limits (-10.0 170.0)
  end
  begin
     id 27 
     name rwrist
     direction -1 -4.48968e-011 9.00208e-027   
     length 1.59676   
     axis -6.29373e-015 -90 -90   XYZ
    dof ry
    limits (-180.0 0.0)
  end
  begin
     id 28
     name rhand
     direction -1 -4.49e-011 1.80099e-026   
     length 0.743862   
     axis -1.14882e-014 -90 -90   XYZ
    dof rx rz
    limits (-90.0 90.0)
           (-45.0 45.0)
  end
  begin
     id 29
     name rfingers
     direction -1 -4.49009e-011 3.6023e-026   
     length 0.599721   
     axis -2.29769e-014 -90 -90   XYZ
    dof rx
    limits (0.0 90.0)
  end
  begin
     id 30
     name rthumb
     direction -0.707107 -6.35025e-011 0.707107   
     length 0.861083   
     axis -90 -45 -5.37419e-014   XYZ
    dof rx rz
    limits (-45.0 45.0)
           (-45.0 45.0)
  end
:hierarchy
  begin
    root lhipjoint rhipjoint lowerback
    lhipjoint lfemur
    lfemur ltibia
    ltibia lfoot
    lfoot ltoes
    rhipjoint rfemur
    rfemur rtibia
    rtibia rfoot
    rfoot rtoes
    lowerback upperback
    upperback thorax
    thorax lowerneck lclavicle rclavicle
    lowerneck upperneck
    upperneck head
    lclavicle lhumerus
    lhumerus lradius
    lradius lwrist
    lwrist lhand lthumb
    lhand lfingers
    rclavicle rhumerus
    rhumerus rradius
    rradius rwrist
    rwrist rhand rthumb
    rhand rfingers
  end

#!OML:ASF H:\Martial Arts Walks\Project 1\Capture day 1\Session 1\male.ASF
:FULLY-SPECIFIED
:DEGREES
415
root -3.69689 15.8057 -15.8779 -3.50979 -11.4618 6.11039
lowerback 17.353 -3.30645 3.22173
upperback 0.245814 -3.52751 2.13729
thorax -9.54194 -1.77663 1.38717
lowerneck -3.73725 3.17063 -4.25788
upperneck 4.07824 4.50146 -0.677965
head 1.8266 2.16093 0.624253
rclavicle 3.77691e-015 1.59028e-014
rhumerus -38.682 11.9227 -54.6948
rradius 83.1697
rwrist 1.91461
rhand -15.2103 -30.2902
rfingers 7.12502
rthumb 10.9619 -59.984
lclavicle 3.77691e-015 1.59028e-014
lhumerus -6.96206 -2.1403 63.6123
lradius 92.2771
lwrist 24.0515
lhand -36.1055 17.6364
lfingers 7.12502
lthumb -9.21158 47.4152
rfemur -33.5315 -1.94872 20.0103
rtibia 62.397
rfoot -21.1237 -4.96556
rtoes 5.73987
lfemur -52.3043 13.5876 -11.4282
ltibia 112.573
lfoot -17.9743 7.58418
ltoes -12.218
416
root -3.65651 15.8901 -15.7205 -5.15151 -13.8404 6.86415
lowerback 18.1627 -2.96101 3.28312
upperback 0.812099 -3.07254 1.76886
thorax -9.39068 -1.56844 0.856317
lowerneck -3.4672 3.41519 -4.04357
upperneck 3.92345 4.81777 -1.09483
head 1.73695 2.31631 0.456368
rclavicle 1.70955e-014 -2.22639e-014
rhumerus -37.5773 12.4552 -54.3641
rradius 83.1482
rwrist 3.02745
rhand -15.3423 -30.0627
rfingers 7.12502
rthumb 10.8346 -59.7632
lclavicle 1.70955e-014 -2.22639e-014
lhumerus -8.09888 -1.00646 62.6443
lradius 90.9305
lwrist 24.0119
lhand -36.2325 17.9584
lfingers 7.12502
lthumb -9.33418 47.7317
rfemur -31.124 -0.841308 19.1984
rtibia 61.3615
rfoot -21.258 -3.91044
rtoes 5.42977
lfemur -54.9131 14.9825 -10.3277
ltibia 113.524
lfoot -18.2059 6.67871
ltoes -12.122
417
root -3.61025 15.9792 -15.5645 -6.97815 -16.3733 7.90005
lowerback 19.1098 -2.57828 3.21662
upperback 1.40712 -2.60244 1.2997
thorax -9.27099 -1.34902 0.282391
lowerneck -3.37685 3.72446 -3.89159
upperneck 3.92625 5.23278 -1.42181
head 1.72789 2.51835 0.336365
rclavicle -2.78299e-014 -6.36111e-015
rhumerus -36.0904 12.9591 -54.1244
rradius 82.9293
rwrist 4.16013
rhand -15.55 -29.9466
rfingers 7.12502
rthumb 10.6342 -59.6575
lclavicle -2.78299e-014 -6.36111e-015
lhumerus -9.29225 0.197136 61.5977
lradius 89.5495
lwrist 23.9067
lhand -36.6232 17.7915
lfingers 7.12502
lthumb -9.71112 47.5476
rfemur -28.6918 0.404197 18.1696
rtibia 60.2953
rfoot -21.3501 -2.75073
rtoes 5.56104
lfemur -57.2229 16.5571 -9.08929
ltibia 114.441
lfoot -18.2834 6.04951
ltoes -12.1799
418
root -3.5586 16.0833 -15.4037 -8.93229 -19.1367 9.27645
lowerback 19.9748 -2.09096 3.07453
upperback 2.05028 -2.03616 0.685651
thorax -9.0401 -1.08298 -0.446057
lowerneck -3.33425 3.95986 -3.65763
upperneck 3.8389 5.54564 -1.75939
head 1.70425 2.6722 0.197498
rclavicle 1.27222e-014 3.18055e-015
rhumerus -34.4349 13.4498 -53.999
rradius 82.7866
rwrist 5.04319
rhand -15.7588 -30.3394
rfingers 7.12502
rthumb 10.4328 -60.0606
lclavicle 1.27222e-014 3.18055e-015
lhumerus -10.4481 1.31861 60.4551
lradius 88.237
lwrist 23.7309
lhand -36.6764 17.8472
lfingers 7.12502
lthumb -9.76244 47.6009
rfemur -26.3631 1.77187 16.8725
rtibia 59.1898
rfoot -21.4037 -1.3442
rtoes 5.97596
lfemur -59.1824 18.4135 -7.75513
ltibia 115.291
lfoot -18.4895 5.69751
ltoes -12.6419
419
root -3.50119 16.1914 -15.249 -11.0117 -21.829 10.9076
lowerback 20.9478 -1.59748 2.85707
upperback 2.6312 -1.48367 0.0356935
thorax -8.92035 -0.821807 -1.172
lowerneck -3.24689 4.19401 -3.4856
upperneck 3.78642 5.85848 -2.0942
head 1.68448 2.82482 0.069513
rclavicle 5.08889e-014 -3.18055e-014
rhumerus -32.6305 13.9651 -53.8279
rradius 82.6479
rwrist 5.47078
rhand -16.0257 -30.4834
rfingers 7.12502
rthumb 10.1754 -60.2173
lclavicle 5.08889e-014 -3.18055e-014
lhumerus -11.6391 2.43597 59.3583
lradius 86.917
lwrist 23.4871
lhand -36.6179 17.7023
lfingers 7.12502
lthumb -9.70596 47.4587
rfemur -24.2014 3.23866 15.4316
rtibia 58.0948
rfoot -21.331 -0.0715243
rtoes 6.10203
lfemur -61.0394 20.2501 -6.27708
ltibia 116.135
lfoot -18.3015 5.0147
ltoes -11.1778
420
root -3.43621 16.3026 -15.0893 -13.2374 -24.5609 12.8003
lowerback 21.9352 -1.08004 2.56621
upperback 3.17519 -0.928141 -0.634585
thorax -8.83176 -0.557939 -1.89076
lowerneck -3.20127 4.4474 -3.29578
upperneck 3.80857 6.20296 -2.47963
head 1.70053 2.99037 -0.0736766
rclavicle 1.45113e-014 1.59028e-014
rhumerus -30.5896 14.5566 -53.6787
rradius 82.4751
rwrist 5.60402
rhand -16.1358 -30.3519
rfingers 7.12502
rthumb 10.0692 -60.091
lclavicle 1.45113e-014 1.59028e-014
lhumerus -12.9488 3.62959 58.2789
lradius 85.6189
lwrist 23.1961
lhand -36.6759 17.3614
lfingers 7.12502
lthumb -9.76194 47.1151
rfemur -22.2113 4.62752 13.8294
rtibia 57.0276
rfoot -21.196 1.46482
rtoes 6.71765
lfemur -62.6559 22.265 -4.61089
ltibia 116.962
lfoot -18.4415 4.34235
ltoes -10.0669
421
root -3.36587 16.4111 -14.9233 -15.7837 -27.3821 14.9788
lowerback 23.0347 -0.481034 2.15386
upperback 3.73471 -0.307183 -1.30542
thorax -8.76428 -0.26048 -2.57366
lowerneck -3.07989 4.70598 -3.08181
upperneck 3.69884 6.5478 -2.92313
head 1.66635 3.15912 -0.242525
rclavicle -2.54444e-014 3.18055e-015
rhumerus -28.4987 15.2913 -53.4053
rradius 82.4272
rwrist 5.38811
rhand -17.1749 -30.9215
rfingers 7.12502
rthumb 9.06658 -60.7066
lclavicle -2.54444e-014 3.18055e-015
lhumerus -14.289 4.82576 57.2394
lradius 84.2372
lwrist 22.7698
lhand -36.7096 16.7963
lfingers 7.12502
lthumb -9.79448 46.5485
rfemur -20.2796 5.73818 12.2186
rtibia 56.0199
rfoot -20.8489 1.68057
rtoes 1.24352
lfemur -63.8315 24.6286 -2.62461
ltibia 117.785
lfoot -19.2127 3.71449
ltoes -10.967
422
root -3.28969 16.5254 -14.7592 -18.3085 -29.8734 17.3472
lowerback 23.9509 0.0690663 1.8093
upperback 4.26733 0.246902 -2.00419
thorax -8.61761 0.00325365 -3.31984
lowerneck -3.12466 4.89784 -2.98598
upperneck 3.85145 6.82154 -3.24519
head 1.73986 3.28529 -0.347544
rclavicle 6.75868e-015 6.36111e-015
rhumerus -26.247 15.8263 -53.0634
rradius 82.3552
rwrist 5.38948
rhand -17.2624 -30.9694
rfingers 7.12502
rthumb 8.98212 -60.7582
lclavicle 6.75868e-015 6.36111e-015
lhumerus -15.4027 5.90587 56.3091
lradius 82.8584
lwrist 22.288
lhand -36.595 16.7726
lfingers 7.12502
lthumb -9.68395 46.5299
rfemur -18.6925 6.09277 10.4909
rtibia 55.0755
rfoot -20.3637 2.64248
rtoes 2.82988
lfemur -65.2383 26.7377 -0.680949
ltibia 118.535
lfoot -19.6083 2.77357
ltoes -10.2668
423
root -3.21252 16.651 -14.5909 -21.1573 -32.2132 20.0219
lowerback 25.0903 0.634949 1.26171
upperback 4.69774 0.762337 -2.63101
thorax -8.6909 0.248922 -3.87841
lowerneck -3.01193 5.11761 -2.9652
upperneck 3.9672 7.13098 -3.63524
head 1.77554 3.42889 -0.465571
rclavicle 1.90833e-014 3.18055e-014
rhumerus -23.939 16.7062 -52.5716
rradius 82.2857
rwrist 5.24668
rhand -17.3055 -31.0574
rfingers 7.12502
rthumb 8.94056 -60.8479
lclavicle 1.90833e-014 3.18055e-014
lhumerus -16.7717 7.0345 55.5203
lradius 81.4166
lwrist 21.8021
lhand -36.8817 16.5566
lfingers 7.12502
lthumb -9.96055 46.3009
rfemur -17.2296 5.98007 8.60322
rtibia 54.1499
rfoot -19.5232 2.76716
rtoes 0.726444
lfemur -66.2075 28.9153 1.28372
ltibia 119.035
lfoot -20.229 2.42051
ltoes -9.98176
424
root -3.13506 16.7792 -14.4189 -23.9882 -34.4269 22.7147
lowerback 26.1351 1.16277 0.867611
upperback 5.10187 1.25131 -3.23979
thorax -8.73033 0.477048 -4.51239
lowerneck -2.99386 5.31816 -2.86522
upperneck 4.11599 7.41882 -4.03885
head 1.84417 3.56031 -0.598079
rclavicle 7.31528e-014 -4.77083e-015
rhumerus -21.4701 17.4764 -51.9778
rradius 82.0788
rwrist 5.35001
rhand -17.0622 -30.6641
rfingers 7.12502
rthumb 9.17535 -60.4445
lclavicle 7.31528e-014 -4.77083e-015
lhumerus -18.0425 8.13525 54.7466
lradius 79.9208
lwrist 21.306
lhand -37.063 16.3748
lfingers 7.12502
lthumb -10.1354 46.1107
rfemur -16.0333 5.63547 6.85238
rtibia 53.1858
rfoot -18.6262 2.37213
rtoes -0.355973
lfemur -67.2269 31.2157 3.42352
ltibia 119.349
lfoot -20.7143 2.41474
ltoes -9.4187
425
root -3.06085 16.9147 -14.2415 -26.9446 -36.4518 25.67
lowerback 27.1066 1.72025 0.332755
upperback 5.44603 1.72707 -3.81421
thorax -8.79233 0.700416 -5.03676
lowerneck -2.98728 5.49516 -2.65794
upperneck 4.32313 7.68394 -4.62087
head 1.94904 3.67538 -0.803333
rclavicle -4.65156e-014 5.08889e-014
rhumerus -18.952 18.3388 -51.3072
rradius 81.8823
rwrist 5.42507
rhand -17.1034 -31.2497
rfingers 7.12502
rthumb 9.13562 -61.0318
lclavicle -4.65156e-014 5.08889e-014
lhumerus -19.2631 9.18333 54.0703
lradius 78.3276
lwrist 20.9259
lhand -37.5729 16.6695
lfingers 7.12502
lthumb -10.6273 46.3808
rfemur -15.0542 4.70017 4.92537
rtibia 52.1297
rfoot -17.7491 1.77241
rtoes -1.11946
lfemur -68.1316 33.5701 5.42165
ltibia 119.326
lfoot -21.0433 2.69768
ltoes -8.29979
426
root -2.98666 17.046 -14.0645 -29.9593 -38.2559 28.7057
lowerback 28.1232 2.21414 -0.209339
upperback 5.71445 2.10153 -4.34835
thorax -8.96273 0.871416 -5.49816
lowerneck -2.94039 5.68597 -2.57048
upperneck 4.5497 7.97013 -5.12356
head 2.04758 3.80013 -0.96555
rclavicle -2.34566e-014 6.36111e-015
rhumerus -16.3444 19.3774 -50.566
rradius 81.6454
rwrist 5.44299
rhand -17.2998 -31.7353
rfingers 7.12502
rthumb 8.94608 -61.5257
lclavicle -2.34566e-014 6.36111e-015
lhumerus -20.5776 10.296 53.4221
lradius 76.7058
lwrist 20.8151
lhand -38.1978 17.4562
lfingers 7.12502
lthumb -11.23 47.1356
rfemur -14.1796 3.65146 3.06725
rtibia 50.9832
rfoot -16.7329 0.762269
rtoes -2.4153
lfemur -68.983 35.6909 7.36361
ltibia 118.809
lfoot -20.9425 3.59527
ltoes -6.82491
427
root -2.92122 17.1892 -13.8859 -32.9759 -39.895 31.9139
lowerback 28.9804 2.7342 -0.861659
upperback 5.92243 2.46751 -4.8436
thorax -9.12143 1.0401 -5.85573
lowerneck -3.04147 5.88842 -2.46404
upperneck 4.87318 8.28837 -5.65984
head 2.21079 3.93374 -1.13552
rclavicle 1.23246e-013 -3.02153e-014
rhumerus -13.6026 20.3441 -49.7677
rradius 81.2756
rwrist 5.69232
rhand -17.2791 -32.0983
rfingers 7.12502
rthumb 8.96598 -61.8878
lclavicle 1.23246e-013 -3.02153e-014
lhumerus -21.8327 11.2778 52.7738
lradius 75.0482
lwrist 21.1176
lhand -38.571 18.5001
lfingers 7.12502
lthumb -11.59 48.1596
rfemur -13.5455 2.22015 1.13106
rtibia 49.7386
rfoot -15.7144 0.182963
rtoes -1.27132
lfemur -69.5725 37.4822 9.1885
ltibia 117.487
lfoot -20.8266 4.89429
ltoes -4.68852
